<svg xmlns="http://www.w3.org/2000/svg" xmlns:xlink="http://www.w3.org/1999/xlink" width="500" zoomAndPan="magnify" viewBox="0 0 375 374.999991" height="500" preserveAspectRatio="xMidYMid meet" version="1.2"><defs><clipPath id="1e9a87c090"><path d="M 71.835938 135.644531 L 154 135.644531 L 154 210.644531 L 71.835938 210.644531 Z M 71.835938 135.644531 "/></clipPath><clipPath id="a5a035f003"><path d="M 110 185 L 143 185 L 143 210.644531 L 110 210.644531 Z M 110 185 "/></clipPath></defs><g id="74a5737732"><rect x="0" width="375" y="0" height="374.999991" style="fill:#ffffff;fill-opacity:1;stroke:none;"/><rect x="0" width="375" y="0" height="374.999991" style="fill:#ffffff;fill-opacity:1;stroke:none;"/><g clip-rule="nonzero" clip-path="url(#1e9a87c090)"><path style=" stroke:none;fill-rule:nonzero;fill:#0087f6;fill-opacity:1;" d="M 153.972656 135.777344 L 126.792969 141.226562 L 136.441406 145.796875 C 113.433594 168.804688 95.796875 186.441406 71.933594 210.304688 L 87.273438 210.304688 C 87.914062 209.664062 147.425781 150.152344 144.109375 153.464844 L 148.679688 163.113281 Z M 153.972656 135.777344 "/></g><path style=" stroke:none;fill-rule:nonzero;fill:#000000;fill-opacity:1;" d="M 87.460938 155.578125 L 104.027344 172.117188 L 96.332031 179.816406 L 72.121094 155.578125 Z M 87.460938 155.578125 "/><g clip-rule="nonzero" clip-path="url(#a5a035f003)"><path style=" stroke:none;fill-rule:nonzero;fill:#000000;fill-opacity:1;" d="M 142.214844 210.332031 L 126.847656 210.332031 L 110.171875 193.628906 L 117.84375 185.960938 Z M 142.214844 210.332031 "/></g><g style="fill:#000000;fill-opacity:1;"><g transform="translate(147.40618, 207.701995)"><path style="stroke:none" d="M 23.625 -33.03125 C 27.695312 -33.03125 30.878906 -32.066406 33.171875 -30.140625 C 35.472656 -28.210938 36.625 -25.441406 36.625 -21.828125 C 36.625 -20.109375 36.363281 -18.265625 35.84375 -16.296875 C 34.875 -12.671875 33.367188 -9.597656 31.328125 -7.078125 C 29.296875 -4.554688 26.875 -2.648438 24.0625 -1.359375 C 21.25 -0.0664062 18.191406 0.578125 14.890625 0.578125 C 10.847656 0.578125 7.675781 -0.378906 5.375 -2.296875 C 3.082031 -4.222656 1.9375 -7 1.9375 -10.625 C 1.9375 -12.269531 2.210938 -14.160156 2.765625 -16.296875 C 3.703125 -19.878906 5.179688 -22.925781 7.203125 -25.4375 C 9.222656 -27.945312 11.628906 -29.835938 14.421875 -31.109375 C 17.222656 -32.390625 20.289062 -33.03125 23.625 -33.03125 Z M 22.75 -28.28125 C 21.78125 -28.28125 20.90625 -27.890625 20.125 -27.109375 C 19.351562 -26.335938 18.585938 -25.066406 17.828125 -23.296875 C 17.066406 -21.535156 16.25 -19.085938 15.375 -15.953125 C 14.082031 -11.429688 13.4375 -8.3125 13.4375 -6.59375 C 13.4375 -5.59375 13.613281 -4.863281 13.96875 -4.40625 C 14.320312 -3.957031 14.890625 -3.734375 15.671875 -3.734375 C 16.640625 -3.734375 17.507812 -4.128906 18.28125 -4.921875 C 19.0625 -5.710938 19.820312 -6.976562 20.5625 -8.71875 C 21.300781 -10.46875 22.125 -12.878906 23.03125 -15.953125 C 24.289062 -20.421875 24.921875 -23.554688 24.921875 -25.359375 C 24.921875 -26.398438 24.742188 -27.144531 24.390625 -27.59375 C 24.035156 -28.050781 23.488281 -28.28125 22.75 -28.28125 Z M 22.75 -28.28125 "/></g></g><g style="fill:#000000;fill-opacity:1;"><g transform="translate(183.527015, 207.701995)"><path style="stroke:none" d="M 27.109375 -6.984375 C 27.046875 -6.722656 27.015625 -6.546875 27.015625 -6.453125 C 27.015625 -6.222656 27.078125 -6.039062 27.203125 -5.90625 C 27.335938 -5.78125 27.5 -5.71875 27.6875 -5.71875 C 28.082031 -5.71875 28.414062 -5.882812 28.6875 -6.21875 C 28.957031 -6.5625 29.144531 -6.734375 29.25 -6.734375 C 29.40625 -6.734375 29.53125 -6.617188 29.625 -6.390625 C 29.726562 -6.171875 29.78125 -5.914062 29.78125 -5.625 C 29.8125 -4.75 29.476562 -3.859375 28.78125 -2.953125 C 28.082031 -2.046875 27.148438 -1.300781 25.984375 -0.71875 C 24.828125 -0.144531 23.570312 0.140625 22.21875 0.140625 C 20.59375 0.140625 19.179688 -0.164062 17.984375 -0.78125 C 16.796875 -1.394531 15.972656 -2.203125 15.515625 -3.203125 C 14.640625 -2.066406 13.632812 -1.222656 12.5 -0.671875 C 11.375 -0.128906 10.179688 0.140625 8.921875 0.140625 C 7.429688 0.140625 6.046875 -0.226562 4.765625 -0.96875 C 3.492188 -1.707031 2.476562 -2.765625 1.71875 -4.140625 C 0.957031 -5.515625 0.578125 -7.078125 0.578125 -8.828125 C 0.578125 -11.765625 1.132812 -14.535156 2.25 -17.140625 C 3.363281 -19.742188 4.921875 -21.84375 6.921875 -23.4375 C 8.929688 -25.039062 11.21875 -25.84375 13.78125 -25.84375 C 15.164062 -25.84375 16.347656 -25.679688 17.328125 -25.359375 C 18.316406 -25.035156 19.21875 -24.550781 20.03125 -23.90625 L 21.671875 -29.34375 C 21.773438 -29.632812 21.828125 -29.875 21.828125 -30.0625 C 21.828125 -30.425781 21.738281 -30.71875 21.5625 -30.9375 C 21.382812 -31.164062 21.148438 -31.394531 20.859375 -31.625 C 20.535156 -31.882812 20.300781 -32.109375 20.15625 -32.296875 C 20.007812 -32.492188 19.984375 -32.753906 20.078125 -33.078125 C 20.273438 -33.816406 21.296875 -34.460938 23.140625 -35.015625 C 24.984375 -35.566406 26.90625 -35.84375 28.90625 -35.84375 C 30.78125 -35.84375 32.160156 -35.484375 33.046875 -34.765625 C 33.941406 -34.054688 34.390625 -33.085938 34.390625 -31.859375 C 34.390625 -31.148438 34.273438 -30.457031 34.046875 -29.78125 Z M 19.015625 -20.609375 C 18.492188 -21.066406 17.925781 -21.296875 17.3125 -21.296875 C 16.375 -21.296875 15.453125 -20.597656 14.546875 -19.203125 C 13.640625 -17.816406 12.910156 -16.132812 12.359375 -14.15625 C 11.816406 -12.1875 11.5625 -10.410156 11.59375 -8.828125 C 11.59375 -7.046875 12.175781 -6.15625 13.34375 -6.15625 C 13.757812 -6.15625 14.113281 -6.320312 14.40625 -6.65625 C 14.695312 -7 14.972656 -7.5625 15.234375 -8.34375 Z M 19.015625 -20.609375 "/></g></g><g style="fill:#000000;fill-opacity:1;"><g transform="translate(215.866098, 207.701995)"><path style="stroke:none" d="M 17.3125 -25.65625 C 21.03125 -25.65625 24.003906 -24.96875 26.234375 -23.59375 C 28.460938 -22.21875 29.578125 -20.125 29.578125 -17.3125 C 29.578125 -16.25 29.382812 -15.035156 29 -13.671875 L 27.015625 -6.984375 C 26.984375 -6.859375 26.96875 -6.695312 26.96875 -6.5 C 26.96875 -5.976562 27.175781 -5.71875 27.59375 -5.71875 C 27.976562 -5.71875 28.304688 -5.882812 28.578125 -6.21875 C 28.859375 -6.5625 29.050781 -6.734375 29.15625 -6.734375 C 29.3125 -6.734375 29.445312 -6.617188 29.5625 -6.390625 C 29.675781 -6.171875 29.734375 -5.914062 29.734375 -5.625 C 29.765625 -4.75 29.429688 -3.859375 28.734375 -2.953125 C 28.035156 -2.046875 27.101562 -1.300781 25.9375 -0.71875 C 24.78125 -0.144531 23.503906 0.140625 22.109375 0.140625 C 20.429688 0.140625 18.992188 -0.164062 17.796875 -0.78125 C 16.597656 -1.394531 15.773438 -2.296875 15.328125 -3.484375 C 14.359375 -2.328125 13.207031 -1.429688 11.875 -0.796875 C 10.550781 -0.171875 9.128906 0.140625 7.609375 0.140625 C 5.898438 0.140625 4.460938 -0.1875 3.296875 -0.84375 C 2.128906 -1.507812 1.265625 -2.367188 0.703125 -3.421875 C 0.140625 -4.472656 -0.140625 -5.578125 -0.140625 -6.734375 C -0.140625 -7.253906 -0.09375 -7.757812 0 -8.25 C 0.519531 -10.476562 1.644531 -12.15625 3.375 -13.28125 C 5.101562 -14.414062 7.160156 -14.984375 9.546875 -14.984375 C 12.234375 -14.984375 14.867188 -14.5625 17.453125 -13.71875 L 18.671875 -16.921875 C 19.085938 -18.285156 19.296875 -19.335938 19.296875 -20.078125 C 19.265625 -20.859375 19.003906 -21.441406 18.515625 -21.828125 C 18.035156 -22.210938 17.296875 -22.40625 16.296875 -22.40625 C 16.492188 -21.882812 16.59375 -21.351562 16.59375 -20.8125 C 16.59375 -19.613281 16.140625 -18.578125 15.234375 -17.703125 C 14.328125 -16.828125 13.03125 -16.390625 11.34375 -16.390625 C 9.757812 -16.390625 8.523438 -16.738281 7.640625 -17.4375 C 6.753906 -18.132812 6.3125 -19 6.3125 -20.03125 C 6.3125 -21.644531 7.210938 -22.984375 9.015625 -24.046875 C 10.828125 -25.117188 13.59375 -25.65625 17.3125 -25.65625 Z M 14.59375 -10.96875 C 13.6875 -10.96875 12.953125 -10.617188 12.390625 -9.921875 C 11.828125 -9.222656 11.546875 -8.46875 11.546875 -7.65625 C 11.546875 -7.144531 11.664062 -6.726562 11.90625 -6.40625 C 12.144531 -6.082031 12.492188 -5.921875 12.953125 -5.921875 C 13.367188 -5.921875 13.828125 -6.085938 14.328125 -6.421875 C 14.828125 -6.765625 15.191406 -7.273438 15.421875 -7.953125 L 16.4375 -10.8125 C 15.882812 -10.914062 15.269531 -10.96875 14.59375 -10.96875 Z M 14.59375 -10.96875 "/></g></g><g style="fill:#000000;fill-opacity:1;"><g transform="translate(248.156701, 207.701995)"><path style="stroke:none" d="M 25.703125 -25.65625 C 27.128906 -25.65625 28.269531 -25.082031 29.125 -23.9375 C 29.976562 -22.789062 30.40625 -21.226562 30.40625 -19.25 C 30.40625 -17.539062 30.097656 -15.695312 29.484375 -13.71875 C 28.285156 -9.75 26.367188 -6 23.734375 -2.46875 C 21.097656 1.050781 18.070312 3.878906 14.65625 6.015625 C 11.25 8.148438 7.851562 9.21875 4.46875 9.21875 C 2.78125 9.21875 1.328125 8.925781 0.109375 8.34375 C -1.097656 7.757812 -2.015625 6.984375 -2.640625 6.015625 C -3.273438 5.046875 -3.59375 4.007812 -3.59375 2.90625 C -3.59375 2.425781 -3.507812 1.894531 -3.34375 1.3125 C -3.050781 0.40625 -2.566406 -0.285156 -1.890625 -0.765625 C -1.210938 -1.253906 -0.40625 -1.5 0.53125 -1.5 C 2.019531 -1.5 3.238281 -0.992188 4.1875 0.015625 C 5.144531 1.035156 5.753906 2.4375 6.015625 4.21875 C 8.085938 4.125 9.992188 3.234375 11.734375 1.546875 C 10.085938 1.253906 8.867188 0.695312 8.078125 -0.125 C 7.285156 -0.945312 6.742188 -2.234375 6.453125 -3.984375 L 4.515625 -15.859375 C 4.410156 -16.472656 4.269531 -16.898438 4.09375 -17.140625 C 3.914062 -17.390625 3.679688 -17.515625 3.390625 -17.515625 C 3.171875 -17.515625 2.90625 -17.398438 2.59375 -17.171875 C 2.289062 -16.941406 2.070312 -16.828125 1.9375 -16.828125 C 1.675781 -16.828125 1.546875 -17.101562 1.546875 -17.65625 C 1.546875 -18.101562 1.628906 -18.585938 1.796875 -19.109375 C 2.378906 -20.953125 3.460938 -22.507812 5.046875 -23.78125 C 6.628906 -25.0625 8.472656 -25.703125 10.578125 -25.703125 C 12.640625 -25.703125 14.164062 -25.085938 15.15625 -23.859375 C 16.144531 -22.628906 16.785156 -20.738281 17.078125 -18.1875 L 18.53125 -7.515625 C 18.625 -6.710938 18.914062 -6.3125 19.40625 -6.3125 C 19.976562 -6.3125 20.648438 -6.832031 21.421875 -7.875 C 22.203125 -8.925781 22.96875 -10.425781 23.71875 -12.375 C 22.75 -13.238281 22.003906 -14.238281 21.484375 -15.375 C 20.960938 -16.507812 20.703125 -17.722656 20.703125 -19.015625 C 20.703125 -20.015625 20.832031 -20.921875 21.09375 -21.734375 C 21.476562 -23.023438 22.082031 -24 22.90625 -24.65625 C 23.738281 -25.320312 24.671875 -25.65625 25.703125 -25.65625 Z M 25.703125 -25.65625 "/></g></g></g></svg>